<svg xmlns="http://www.w3.org/2000/svg" viewBox="0 0 32 32" shape-rendering="crispEdges"><path fill="#010101" d="M7 6h1v1h-1zM22 6h1v1h-1zM24 6h1v1h-1zM6 7h1v1h-1zM10 7h1v1h-1zM6 8h1v1h-1zM25 8h1v1h-1zM5 9h1v1h-1zM6 10h1v1h-1zM25 10h1v1h-1zM6 12h1v1h-1zM13 12h1v1h-1zM17 12h1v1h-1zM25 12h1v1h-1zM5 13h2v1h-2zM25 13h1v1h-1zM5 14h1v1h-1zM10 18h3v1h-3zM21 18h1v1h-1zM27 18h1v1h-1zM2 19h1v1h-1zM16 19h1v1h-1zM29 19h1v1h-1zM2 20h1v1h-1zM15 20h2v1h-2zM4 22h1v1h-1zM25 22h2v1h-2zM6 23h3v1h-3zM23 23h2v1h-2zM10 25h3v1h-3zM15 25h2v1h-2zM19 25h1v1h-1z"/><path fill="#020202" d="M20 6h1v1h-1zM23 6h1v1h-1zM26 7h1v1h-1zM11 8h1v1h-1zM21 8h1v1h-1zM26 8h1v1h-1zM6 9h1v1h-1zM5 10h1v1h-1zM25 11h2v1h-2zM5 12h1v1h-1zM11 12h1v1h-1zM26 12h1v1h-1zM25 14h1v1h-1zM19 18h1v1h-1zM14 19h2v1h-2zM5 21h1v1h-1zM25 21h1v1h-1zM27 21h1v1h-1zM23 24h1v1h-1zM25 24h1v1h-1zM17 25h2v1h-2zM22 25h1v1h-1z"/><path fill="#000000" d="M8 6h2v1h-2zM13 6h3v1h-3zM5 7h1v1h-1zM5 8h1v1h-1zM25 9h1v1h-1zM6 11h1v1h-1zM12 12h1v1h-1zM14 12h3v1h-3zM4 16h1v1h-1zM27 16h1v1h-1zM4 17h1v1h-1zM27 17h1v1h-1zM4 18h1v1h-1zM20 18h1v1h-1zM5 22h2v1h-2zM27 22h1v1h-1zM9 25h1v1h-1zM13 25h2v1h-2zM20 25h2v1h-2z"/><path fill="#040404" d="M9 8h1v1h-1zM9 9h1v1h-1zM26 10h1v1h-1zM10 12h1v1h-1zM26 13h1v1h-1zM26 14h1v1h-1zM12 17h1v1h-1zM19 17h2v1h-2zM3 19h1v1h-1zM17 19h1v1h-1zM14 20h1v1h-1zM17 20h1v1h-1zM4 21h1v1h-1zM15 21h1v1h-1zM6 24h3v1h-3z"/><path fill="#030303" d="M10 8h1v1h-1zM26 9h1v1h-1zM9 10h1v1h-1zM5 11h1v1h-1zM9 11h1v1h-1zM6 14h1v1h-1zM28 19h1v1h-1zM3 20h1v1h-1zM28 20h2v1h-2zM6 21h1v1h-1zM26 21h1v1h-1zM24 24h1v1h-1z"/><path fill="#080606" d="M22 8h1v1h-1zM19 10h1v1h-1zM26 16h1v1h-1zM10 17h2v1h-2zM21 17h1v1h-1zM26 17h1v1h-1zM26 18h1v1h-1zM10 19h3v1h-3zM19 19h3v1h-3zM14 21h1v1h-1z"/><path fill="#f1c431" d="M20 7h1v1h-1zM20 8h1v1h-1zM18 9h1v1h-1zM20 9h1v1h-1zM11 10h8v1h-8zM20 10h1v1h-1zM20 11h1v1h-1zM19 12h1v1h-1z"/><path fill="#161510" d="M9 7h1v1h-1zM22 7h1v1h-1zM22 9h1v1h-1zM22 10h1v1h-1zM5 18h1v1h-1zM17 21h1v1h-1z"/><path fill="#030002" d="M12 6h1v1h-1zM21 7h1v1h-1zM10 10h1v1h-1zM20 12h1v1h-1zM16 21h1v1h-1z"/><path fill="#a55616" d="M15 7h1v1h-1zM18 7h1v1h-1zM13 8h7v1h-7zM12 9h6v1h-6zM19 9h1v1h-1z"/><path fill="#453c09" d="M11 11h8v1h-8zM22 11h1v1h-1zM5 16h1v1h-1zM5 17h1v1h-1z"/><path fill="#9b5219" d="M13 7h2v1h-2zM16 7h2v1h-2zM19 7h1v1h-1zM11 9h1v1h-1z"/><path fill="#b26d28" d="M12 7h1v1h-1zM12 8h1v1h-1zM21 10h1v1h-1zM21 11h1v1h-1z"/><path fill="#000104" d="M17 6h3v1h-3zM19 11h1v1h-1zM18 12h1v1h-1z"/><path fill="#000002" d="M16 6h1v1h-1zM21 9h1v1h-1z"/><path fill="#010000" d="M25 7h1v1h-1zM25 23h1v1h-1z"/><path fill="#010100" d="M11 7h1v1h-1zM10 11h1v1h-1z"/><path fill="#ffffff" d="M25 6h1v1h-1zM7 7h2v1h-2z"/><path fill="#000201" d="M10 9h1v1h-1z"/><path fill="#f9e17b" d="M6 6h1v1h-1z"/></svg>