<svg xmlns="http://www.w3.org/2000/svg" viewBox="0 0 32 32" shape-rendering="crispEdges"><path fill="#010101" d="M8 6h1v1h-1zM8 7h1v1h-1zM22 7h1v1h-1zM24 7h1v1h-1zM5 8h2v1h-2zM20 8h1v1h-1zM12 10h1v1h-1zM2 11h1v1h-1zM6 11h1v1h-1zM14 11h2v1h-2zM8 14h1v1h-1zM26 16h1v1h-1zM12 17h1v1h-1zM26 17h1v1h-1zM11 18h2v1h-2zM19 18h2v1h-2zM3 19h1v1h-1zM15 19h2v1h-2zM27 19h1v1h-1zM3 20h1v1h-1zM27 20h1v1h-1zM6 21h1v1h-1zM25 21h1v1h-1zM6 22h1v1h-1zM7 23h2v1h-2zM10 24h1v1h-1zM13 24h1v1h-1zM18 24h3v1h-3zM22 24h1v1h-1zM9 25h1v1h-1zM15 25h5v1h-5z"/><path fill="#000000" d="M7 6h1v1h-1zM9 6h1v1h-1zM22 6h2v1h-2zM9 7h1v1h-1zM23 7h1v1h-1zM24 8h1v1h-1zM19 10h1v1h-1zM25 10h1v1h-1zM13 11h1v1h-1zM16 11h1v1h-1zM2 12h1v1h-1zM5 15h2v1h-2zM5 17h1v1h-1zM11 17h1v1h-1zM5 18h1v1h-1zM15 20h2v1h-2zM5 21h1v1h-1zM8 22h1v1h-1zM6 23h1v1h-1zM23 23h1v1h-1zM11 24h2v1h-2zM14 24h4v1h-4zM21 24h1v1h-1zM11 25h4v1h-4zM20 25h3v1h-3z"/><path fill="#020202" d="M7 7h1v1h-1zM11 8h1v1h-1zM3 9h1v1h-1zM24 10h1v1h-1zM4 14h1v1h-1zM19 17h1v1h-1zM4 19h1v1h-1zM11 19h2v1h-2zM4 20h1v1h-1zM24 21h1v1h-1zM7 22h1v1h-1zM24 22h2v1h-2zM24 23h2v1h-2zM9 24h1v1h-1zM10 25h1v1h-1z"/><path fill="#040403" d="M10 8h1v1h-1zM21 8h1v1h-1zM24 9h1v1h-1zM8 10h1v1h-1zM17 11h2v1h-2zM18 17h1v1h-1zM20 17h1v1h-1zM26 18h1v1h-1zM10 19h1v1h-1zM26 21h1v1h-1zM26 22h1v1h-1z"/><path fill="#080706" d="M8 9h1v1h-1zM12 9h1v1h-1zM19 9h1v1h-1zM2 13h1v1h-1zM26 15h1v1h-1zM10 17h1v1h-1zM10 18h1v1h-1zM18 18h1v1h-1zM28 20h1v1h-1zM5 22h1v1h-1z"/><path fill="#055495" d="M27 8h3v1h-3zM29 9h1v1h-1zM27 10h1v1h-1zM27 11h1v1h-1zM23 12h3v1h-3zM27 12h3v1h-3zM24 13h2v1h-2zM23 14h1v1h-1zM23 15h3v1h-3z"/><path fill="#eeefd8" d="M21 6h1v1h-1zM10 9h2v1h-2zM18 9h1v1h-1zM18 10h1v1h-1zM17 19h1v1h-1zM17 20h1v1h-1zM4 21h1v1h-1zM4 22h1v1h-1z"/><path fill="#0e0d0c" d="M24 6h1v1h-1zM13 12h6v1h-6zM8 13h1v1h-1zM7 14h1v1h-1zM18 19h3v1h-3zM28 19h1v1h-1zM23 22h1v1h-1z"/><path fill="#fbde42" d="M5 9h2v1h-2zM5 10h2v1h-2zM3 11h3v1h-3zM3 12h3v1h-3zM3 13h3v1h-3zM5 14h2v1h-2z"/><path fill="#090200" d="M4 9h1v1h-1zM7 9h1v1h-1zM4 10h1v1h-1zM7 10h1v1h-1zM6 13h1v1h-1z"/><path fill="#275b89" d="M21 9h1v1h-1zM28 10h1v1h-1zM28 11h1v1h-1zM23 13h1v1h-1zM4 18h1v1h-1z"/><path fill="#cac495" d="M21 7h1v1h-1zM20 9h1v1h-1zM29 11h1v1h-1zM4 17h1v1h-1z"/><path fill="#15324d" d="M7 13h1v1h-1zM14 19h1v1h-1zM14 20h1v1h-1z"/><path fill="#000201" d="M6 12h1v1h-1zM3 14h1v1h-1z"/><path fill="#fdfffe" d="M27 9h2v1h-2zM24 14h2v1h-2z"/><path fill="#010000" d="M3 10h1v1h-1z"/><path fill="#010103" d="M25 9h1v1h-1z"/><path fill="#020204" d="M25 8h1v1h-1z"/></svg>