<svg xmlns="http://www.w3.org/2000/svg" viewBox="0 0 32 32" shape-rendering="crispEdges"><path fill="#010101" d="M7 6h1v1h-1zM23 6h1v1h-1zM10 7h1v1h-1zM21 7h1v1h-1zM26 7h1v1h-1zM26 8h1v1h-1zM5 9h1v1h-1zM12 9h1v1h-1zM25 9h2v1h-2zM5 10h2v1h-2zM15 10h1v1h-1zM19 10h3v1h-3zM26 10h1v1h-1zM15 11h1v1h-1zM20 11h1v1h-1zM25 11h2v1h-2zM5 12h1v1h-1zM8 12h2v1h-2zM25 12h2v1h-2zM5 13h1v1h-1zM7 13h1v1h-1zM2 15h1v1h-1zM29 15h1v1h-1zM2 16h1v1h-1zM29 16h1v1h-1zM10 17h1v1h-1zM12 17h1v1h-1zM20 17h2v1h-2zM24 17h1v1h-1zM29 17h1v1h-1zM2 18h1v1h-1zM10 18h1v1h-1zM12 18h1v1h-1zM19 18h2v1h-2zM29 18h1v1h-1zM19 19h2v1h-2zM27 19h1v1h-1zM15 20h2v1h-2zM5 21h1v1h-1zM7 21h1v1h-1zM26 21h1v1h-1zM5 22h1v1h-1zM20 22h1v1h-1zM26 22h1v1h-1zM7 23h1v1h-1zM24 23h1v1h-1zM9 25h3v1h-3zM14 25h4v1h-4zM19 25h3v1h-3zM16 26h1v1h-1zM19 26h1v1h-1zM22 26h1v1h-1z"/><path fill="#ffffff" d="M7 7h2v1h-2zM22 7h3v1h-3zM7 8h2v1h-2zM22 8h3v1h-3zM7 9h4v1h-4zM21 9h1v1h-1zM23 9h2v1h-2zM7 10h2v1h-2zM23 10h2v1h-2zM7 11h1v1h-1zM24 11h1v1h-1zM7 12h1v1h-1zM11 12h11v1h-11zM24 12h1v1h-1zM10 13h12v1h-12zM8 14h16v1h-16zM9 15h15v1h-15zM9 16h15v1h-15zM8 17h2v1h-2zM14 17h5v1h-5zM23 17h1v1h-1zM8 18h2v1h-2zM14 18h5v1h-5zM22 18h2v1h-2zM8 19h2v1h-2zM14 19h1v1h-1zM18 19h1v1h-1zM22 19h2v1h-2zM8 20h7v1h-7zM18 20h6v1h-6zM8 21h8v1h-8zM22 21h2v1h-2zM7 22h1v1h-1zM9 22h10v1h-10zM9 23h10v1h-10zM22 23h1v1h-1zM9 24h6v1h-6zM16 24h2v1h-2zM19 24h3v1h-3z"/><path fill="#000000" d="M7 5h2v1h-2zM22 5h1v1h-1zM24 5h1v1h-1zM8 6h1v1h-1zM24 6h1v1h-1zM5 8h1v1h-1zM25 8h1v1h-1zM19 9h1v1h-1zM5 11h1v1h-1zM22 12h2v1h-2zM27 13h1v1h-1zM24 14h1v1h-1zM24 15h1v1h-1zM24 16h1v1h-1zM2 17h1v1h-1zM3 18h1v1h-1zM11 18h1v1h-1zM21 18h1v1h-1zM24 18h1v1h-1zM2 19h2v1h-2zM7 19h1v1h-1zM24 19h1v1h-1zM28 19h1v1h-1zM24 20h1v1h-1zM4 21h1v1h-1zM6 21h1v1h-1zM24 21h2v1h-2zM27 21h1v1h-1zM8 23h1v1h-1zM24 24h1v1h-1zM22 25h1v1h-1zM14 26h1v1h-1z"/><path fill="#020202" d="M23 5h1v1h-1zM5 7h2v1h-2zM25 7h1v1h-1zM21 8h1v1h-1zM11 9h1v1h-1zM20 9h1v1h-1zM11 10h2v1h-2zM25 10h1v1h-1zM10 11h1v1h-1zM18 11h2v1h-2zM21 11h1v1h-1zM5 14h1v1h-1zM19 17h1v1h-1zM15 19h1v1h-1zM29 19h1v1h-1zM27 20h1v1h-1zM6 22h1v1h-1zM19 22h1v1h-1zM21 22h1v1h-1zM25 22h1v1h-1zM7 24h2v1h-2zM12 25h2v1h-2zM18 25h1v1h-1zM9 26h1v1h-1zM13 26h1v1h-1zM17 26h1v1h-1zM21 26h1v1h-1z"/><path fill="#040404" d="M9 5h1v1h-1zM22 6h1v1h-1zM10 8h1v1h-1zM6 9h1v1h-1zM10 10h1v1h-1zM13 10h2v1h-2zM17 10h2v1h-2zM6 11h1v1h-1zM11 11h1v1h-1zM16 11h1v1h-1zM6 12h1v1h-1zM4 13h1v1h-1zM11 17h1v1h-1zM11 26h1v1h-1zM15 26h1v1h-1zM18 26h1v1h-1z"/><path fill="#030303" d="M6 8h1v1h-1zM16 10h1v1h-1zM12 11h3v1h-3zM17 11h1v1h-1zM24 13h1v1h-1zM10 19h1v1h-1zM16 19h1v1h-1zM21 19h1v1h-1zM20 21h1v1h-1zM22 22h1v1h-1zM10 26h1v1h-1zM12 26h1v1h-1zM20 26h1v1h-1z"/><path fill="#fefefe" d="M22 9h1v1h-1zM22 10h1v1h-1zM10 12h1v1h-1zM8 15h1v1h-1zM8 16h1v1h-1zM13 17h1v1h-1zM22 17h1v1h-1zM13 18h1v1h-1zM16 21h3v1h-3zM8 22h1v1h-1zM15 24h1v1h-1zM18 24h1v1h-1zM22 24h1v1h-1z"/><path fill="#1c1d1f" d="M9 7h1v1h-1zM9 8h1v1h-1zM3 15h2v1h-2zM27 15h1v1h-1zM3 16h2v1h-2zM27 16h1v1h-1zM11 19h1v1h-1zM2 20h1v1h-1zM28 20h1v1h-1zM23 23h1v1h-1zM25 23h2v1h-2zM23 24h1v1h-1z"/><path fill="#050505" d="M9 6h1v1h-1zM25 13h1v1h-1zM12 19h1v1h-1zM17 19h1v1h-1zM17 20h1v1h-1zM29 20h1v1h-1zM19 21h1v1h-1zM21 21h1v1h-1zM23 22h1v1h-1zM19 23h3v1h-3z"/><path fill="#e2202a" d="M5 15h2v1h-2zM25 15h2v1h-2zM5 16h2v1h-2zM25 16h2v1h-2zM5 17h2v1h-2zM25 17h2v1h-2zM5 18h2v1h-2zM25 18h2v1h-2zM5 19h2v1h-2zM25 19h2v1h-2z"/><path fill="#f7f7f7" d="M9 10h1v1h-1zM22 11h2v1h-2zM3 13h1v1h-1zM3 14h1v1h-1zM13 19h1v1h-1zM3 21h1v1h-1zM24 22h1v1h-1zM5 23h1v1h-1zM6 24h1v1h-1zM23 26h1v1h-1z"/><path fill="#010103" d="M26 13h1v1h-1zM26 14h2v1h-2zM7 15h1v1h-1zM28 15h1v1h-1zM7 16h1v1h-1zM27 17h1v1h-1zM7 18h1v1h-1z"/><path fill="#949494" d="M6 5h1v1h-1zM6 6h1v1h-1zM8 11h2v1h-2zM8 13h2v1h-2zM22 13h2v1h-2zM3 20h1v1h-1zM6 23h1v1h-1z"/><path fill="#000101" d="M6 13h1v1h-1zM28 17h1v1h-1zM4 18h1v1h-1zM27 18h1v1h-1z"/><path fill="#010002" d="M4 14h1v1h-1zM6 14h1v1h-1zM4 19h1v1h-1z"/><path fill="#020204" d="M28 16h1v1h-1zM4 17h1v1h-1zM7 17h1v1h-1z"/><path fill="#000002" d="M3 17h1v1h-1zM7 20h1v1h-1z"/><path fill="#000201" d="M28 18h1v1h-1zM4 20h1v1h-1z"/><path fill="#010100" d="M7 14h1v1h-1zM25 14h1v1h-1z"/><path fill="#120001" d="M5 20h2v1h-2zM25 20h2v1h-2z"/></svg>