<svg xmlns="http://www.w3.org/2000/svg" viewBox="0 0 32 32" shape-rendering="crispEdges"><path fill="#000000" d="M21 8h1v1h-1zM12 9h2v1h-2zM20 9h1v1h-1zM19 10h1v1h-1zM26 10h1v1h-1zM14 11h1v1h-1zM18 11h1v1h-1zM7 13h1v1h-1zM26 13h1v1h-1zM5 15h1v1h-1zM8 15h1v1h-1zM10 15h2v1h-2zM13 15h1v1h-1zM15 15h1v1h-1zM20 15h4v1h-4zM6 16h1v1h-1zM11 16h2v1h-2zM18 16h1v1h-1zM20 16h2v1h-2zM23 16h1v1h-1zM12 17h2v1h-2zM18 17h1v1h-1zM20 17h4v1h-4zM26 17h1v1h-1zM8 18h1v1h-1zM12 18h1v1h-1zM22 18h3v1h-3zM2 19h1v1h-1zM10 19h1v1h-1zM12 19h2v1h-2zM15 19h2v1h-2zM22 19h1v1h-1zM24 19h1v1h-1zM2 20h1v1h-1zM15 20h1v1h-1zM17 20h1v1h-1zM29 20h1v1h-1zM2 21h1v1h-1zM28 21h2v1h-2zM26 22h1v1h-1zM23 24h1v1h-1zM6 25h1v1h-1zM11 25h2v1h-2zM19 25h2v1h-2zM23 25h1v1h-1z"/><path fill="#010101" d="M9 6h1v1h-1zM23 6h1v1h-1zM7 8h1v1h-1zM11 8h1v1h-1zM26 8h1v1h-1zM7 9h1v1h-1zM20 10h1v1h-1zM15 11h1v1h-1zM17 11h1v1h-1zM7 12h1v1h-1zM7 15h1v1h-1zM14 15h1v1h-1zM16 15h1v1h-1zM19 15h1v1h-1zM24 15h1v1h-1zM26 15h2v1h-2zM5 16h1v1h-1zM7 16h1v1h-1zM10 16h1v1h-1zM13 16h2v1h-2zM16 16h2v1h-2zM19 16h1v1h-1zM22 16h1v1h-1zM24 16h3v1h-3zM11 17h1v1h-1zM14 17h1v1h-1zM24 17h2v1h-2zM13 18h1v1h-1zM8 19h1v1h-1zM17 19h1v1h-1zM23 19h1v1h-1zM28 19h2v1h-2zM13 20h1v1h-1zM20 20h1v1h-1zM23 20h1v1h-1zM28 20h1v1h-1zM2 22h1v1h-1zM27 22h1v1h-1zM2 23h1v1h-1zM2 24h1v1h-1zM7 25h1v1h-1zM13 25h4v1h-4zM18 25h1v1h-1zM21 25h2v1h-2z"/><path fill="#020202" d="M8 6h1v1h-1zM22 6h1v1h-1zM24 6h1v1h-1zM22 7h1v1h-1zM22 8h1v1h-1zM26 9h1v1h-1zM7 10h1v1h-1zM12 10h1v1h-1zM7 11h1v1h-1zM16 11h1v1h-1zM26 11h1v1h-1zM26 12h1v1h-1zM6 15h1v1h-1zM12 15h1v1h-1zM17 15h2v1h-2zM15 16h1v1h-1zM27 16h1v1h-1zM27 18h1v1h-1zM16 20h1v1h-1zM11 22h1v1h-1zM17 25h1v1h-1z"/><path fill="#030303" d="M10 6h1v1h-1zM7 7h1v1h-1zM11 7h1v1h-1zM21 7h1v1h-1zM25 7h2v1h-2zM19 9h1v1h-1zM6 10h1v1h-1zM13 10h1v1h-1zM6 11h1v1h-1zM6 12h1v1h-1zM6 13h1v1h-1zM25 15h1v1h-1zM15 17h1v1h-1zM19 18h1v1h-1zM21 20h1v1h-1zM24 20h1v1h-1zM11 21h1v1h-1zM23 23h1v1h-1zM24 24h1v1h-1z"/><path fill="#040505" d="M6 8h1v1h-1zM6 9h1v1h-1zM25 11h1v1h-1zM25 12h1v1h-1zM25 13h1v1h-1zM9 15h1v1h-1zM17 17h1v1h-1zM12 20h1v1h-1zM19 20h1v1h-1zM22 20h1v1h-1zM25 22h1v1h-1zM11 23h1v1h-1zM11 24h1v1h-1z"/><path fill="#ffffff" d="M9 17h1v1h-1zM16 17h1v1h-1zM14 18h5v1h-5zM26 18h1v1h-1zM14 19h1v1h-1zM18 19h1v1h-1zM26 19h2v1h-2zM14 20h1v1h-1zM18 20h1v1h-1zM26 20h2v1h-2zM12 21h16v1h-16zM12 22h13v1h-13zM12 23h11v1h-11z"/><path fill="#080908" d="M6 7h1v1h-1zM25 8h1v1h-1zM25 9h1v1h-1zM14 10h5v1h-5zM25 10h1v1h-1zM19 11h1v1h-1zM10 20h1v1h-1zM10 21h1v1h-1zM10 22h1v1h-1zM24 23h1v1h-1zM10 24h1v1h-1z"/><path fill="#000002" d="M11 18h1v1h-1zM5 19h2v1h-2zM9 19h1v1h-1zM21 19h1v1h-1zM9 23h1v1h-1zM4 25h1v1h-1z"/><path fill="#303836" d="M28 15h1v1h-1zM8 16h2v1h-2zM28 16h1v1h-1zM6 18h1v1h-1zM10 18h1v1h-1zM21 18h1v1h-1z"/><path fill="#65b537" d="M4 20h6v1h-6zM4 21h4v1h-4zM9 21h1v1h-1zM4 22h4v1h-4zM9 22h1v1h-1zM4 23h5v1h-5z"/><path fill="#b1d999" d="M3 20h1v1h-1zM3 21h1v1h-1zM3 22h1v1h-1zM3 23h1v1h-1zM25 23h1v1h-1zM3 24h6v1h-6z"/><path fill="#000101" d="M10 17h1v1h-1zM3 19h1v1h-1zM7 19h1v1h-1zM19 19h2v1h-2zM9 24h1v1h-1z"/><path fill="#839578" d="M20 18h1v1h-1zM25 20h1v1h-1zM12 24h11v1h-11zM25 24h1v1h-1zM10 25h1v1h-1z"/><path fill="#010100" d="M6 17h1v1h-1zM7 18h1v1h-1zM3 25h1v1h-1zM5 25h1v1h-1z"/><path fill="#e9f6e2" d="M8 17h1v1h-1zM19 17h1v1h-1zM25 18h1v1h-1zM25 19h1v1h-1z"/><path fill="#000304" d="M9 18h1v1h-1zM8 21h1v1h-1zM10 23h1v1h-1z"/><path fill="#010000" d="M11 20h1v1h-1zM8 22h1v1h-1z"/><path fill="#030102" d="M7 17h1v1h-1zM11 19h1v1h-1z"/><path fill="#010203" d="M4 19h1v1h-1z"/><path fill="#060201" d="M8 25h1v1h-1z"/></svg>