<svg xmlns="http://www.w3.org/2000/svg" viewBox="0 0 32 32" shape-rendering="crispEdges"><path fill="#010101" d="M8 5h1v1h-1zM11 6h1v1h-1zM17 6h1v1h-1zM26 6h1v1h-1zM5 7h1v1h-1zM15 7h1v1h-1zM18 7h1v1h-1zM21 7h1v1h-1zM5 8h1v1h-1zM20 8h1v1h-1zM5 9h1v1h-1zM26 9h1v1h-1zM26 10h1v1h-1zM5 11h1v1h-1zM19 11h1v1h-1zM26 11h1v1h-1zM26 12h1v1h-1zM14 13h1v1h-1zM26 14h1v1h-1zM27 16h1v1h-1zM11 18h2v1h-2zM20 18h1v1h-1zM29 18h1v1h-1zM14 19h2v1h-2zM17 19h1v1h-1zM24 19h1v1h-1zM2 20h1v1h-1zM14 20h1v1h-1zM16 20h2v1h-2zM4 21h1v1h-1zM5 22h1v1h-1zM6 23h2v1h-2zM9 25h1v1h-1zM13 25h2v1h-2zM16 25h3v1h-3zM20 25h1v1h-1z"/><path fill="#000000" d="M9 5h1v1h-1zM23 5h2v1h-2zM5 6h1v1h-1zM21 6h1v1h-1zM26 7h1v1h-1zM12 8h1v1h-1zM5 10h1v1h-1zM20 11h2v1h-2zM5 12h1v1h-1zM14 12h1v1h-1zM16 12h1v1h-1zM5 13h1v1h-1zM17 13h1v1h-1zM4 15h1v1h-1zM27 15h1v1h-1zM4 16h1v1h-1zM4 17h1v1h-1zM10 17h3v1h-3zM19 17h2v1h-2zM29 17h1v1h-1zM10 18h1v1h-1zM19 18h1v1h-1zM16 19h1v1h-1zM15 20h1v1h-1zM24 20h1v1h-1zM6 24h1v1h-1zM10 25h3v1h-3zM15 25h1v1h-1zM19 25h1v1h-1z"/><path fill="#030303" d="M10 6h1v1h-1zM13 6h1v1h-1zM18 6h1v1h-1zM11 7h1v1h-1zM25 9h1v1h-1zM17 12h1v1h-1zM25 12h1v1h-1zM15 13h1v1h-1zM25 13h1v1h-1zM5 14h1v1h-1zM26 15h1v1h-1zM5 16h1v1h-1zM25 18h1v1h-1zM23 19h1v1h-1zM23 20h1v1h-1zM6 22h1v1h-1zM22 22h1v1h-1zM26 22h1v1h-1zM5 24h1v1h-1zM7 24h1v1h-1z"/><path fill="#020202" d="M7 5h1v1h-1zM22 5h1v1h-1zM14 6h3v1h-3zM10 7h1v1h-1zM26 8h1v1h-1zM10 10h1v1h-1zM10 11h1v1h-1zM16 13h1v1h-1zM26 13h1v1h-1zM28 17h1v1h-1zM4 18h2v1h-2zM28 18h1v1h-1zM2 19h2v1h-2zM5 21h2v1h-2zM4 22h1v1h-1zM5 23h1v1h-1zM23 26h1v1h-1z"/><path fill="#050605" d="M25 6h1v1h-1zM25 7h1v1h-1zM25 8h1v1h-1zM19 9h2v1h-2zM6 10h1v1h-1zM25 10h1v1h-1zM25 11h1v1h-1zM13 12h1v1h-1zM13 13h1v1h-1zM5 17h1v1h-1zM27 19h1v1h-1zM3 20h1v1h-1zM22 21h1v1h-1zM8 23h1v1h-1zM22 26h1v1h-1z"/><path fill="#0a0b09" d="M6 6h1v1h-1zM6 7h1v1h-1zM6 8h1v1h-1zM6 9h1v1h-1zM6 11h1v1h-1zM6 12h1v1h-1zM6 13h1v1h-1zM6 14h1v1h-1zM25 14h1v1h-1zM5 15h1v1h-1zM26 16h1v1h-1zM8 24h14v1h-14zM24 24h1v1h-1zM26 24h1v1h-1z"/><path fill="#fbd35a" d="M21 10h1v1h-1zM25 19h2v1h-2zM25 20h2v1h-2zM24 21h3v1h-3zM24 22h1v1h-1zM24 23h1v1h-1zM22 24h2v1h-2zM22 25h2v1h-2z"/><path fill="#48763b" d="M10 9h1v1h-1zM23 21h1v1h-1zM23 22h1v1h-1zM23 23h1v1h-1zM25 24h1v1h-1z"/><path fill="#010200" d="M13 7h2v1h-2zM19 8h1v1h-1zM12 9h1v1h-1zM24 25h1v1h-1z"/><path fill="#020101" d="M16 7h2v1h-2zM11 11h1v1h-1zM18 11h1v1h-1zM25 17h1v1h-1z"/><path fill="#1d622a" d="M13 8h6v1h-6zM13 9h6v1h-6zM12 10h9v1h-9zM12 11h6v1h-6z"/><path fill="#fafffb" d="M22 6h1v1h-1zM27 17h1v1h-1zM26 18h2v1h-2zM25 25h1v1h-1z"/><path fill="#000002" d="M21 17h1v1h-1zM21 18h1v1h-1z"/><path fill="#000202" d="M15 12h1v1h-1zM27 20h1v1h-1z"/><path fill="#010103" d="M11 10h1v1h-1zM27 21h1v1h-1z"/><path fill="#010206" d="M22 23h1v1h-1zM26 23h1v1h-1z"/><path fill="#090100" d="M25 22h1v1h-1zM25 23h1v1h-1z"/><path fill="#010002" d="M21 25h1v1h-1z"/><path fill="#142518" d="M11 9h1v1h-1z"/><path fill="#ffffff" d="M26 17h1v1h-1z"/></svg>