<svg xmlns="http://www.w3.org/2000/svg" viewBox="0 0 32 32" shape-rendering="crispEdges"><path fill="#010101" d="M23 6h1v1h-1zM5 7h1v1h-1zM10 7h1v1h-1zM26 7h1v1h-1zM26 8h1v1h-1zM11 9h2v1h-2zM19 9h1v1h-1zM25 9h2v1h-2zM11 10h2v1h-2zM19 10h2v1h-2zM10 11h1v1h-1zM5 12h2v1h-2zM21 12h1v1h-1zM26 12h1v1h-1zM25 13h2v1h-2zM4 16h1v1h-1zM4 17h1v1h-1zM10 18h1v1h-1zM12 18h1v1h-1zM19 18h2v1h-2zM3 19h1v1h-1zM17 19h1v1h-1zM29 19h1v1h-1zM16 20h2v1h-2zM4 21h1v1h-1zM17 21h1v1h-1zM27 21h1v1h-1zM4 22h1v1h-1zM26 22h1v1h-1zM5 23h1v1h-1zM23 23h2v1h-2zM9 25h1v1h-1zM11 25h1v1h-1zM14 25h1v1h-1zM16 25h1v1h-1zM18 25h1v1h-1zM20 25h2v1h-2z"/><path fill="#000000" d="M7 6h3v1h-3zM22 6h1v1h-1zM24 6h1v1h-1zM6 7h1v1h-1zM21 7h1v1h-1zM5 8h2v1h-2zM5 9h1v1h-1zM20 9h1v1h-1zM14 10h4v1h-4zM25 10h2v1h-2zM5 11h1v1h-1zM26 11h1v1h-1zM25 12h1v1h-1zM5 14h1v1h-1zM26 14h1v1h-1zM27 16h1v1h-1zM27 17h1v1h-1zM11 18h1v1h-1zM21 18h1v1h-1zM27 18h1v1h-1zM2 19h1v1h-1zM16 19h1v1h-1zM2 20h1v1h-1zM15 20h1v1h-1zM29 20h1v1h-1zM5 22h1v1h-1zM27 22h1v1h-1zM6 23h1v1h-1zM25 23h1v1h-1zM7 24h1v1h-1zM24 24h1v1h-1zM10 25h1v1h-1zM12 25h2v1h-2zM17 25h1v1h-1zM19 25h1v1h-1zM22 25h1v1h-1z"/><path fill="#020202" d="M25 7h1v1h-1zM25 8h1v1h-1zM5 10h1v1h-1zM13 10h1v1h-1zM8 12h2v1h-2zM5 13h1v1h-1zM25 14h1v1h-1zM4 18h1v1h-1zM15 19h1v1h-1zM28 19h1v1h-1zM16 21h1v1h-1zM25 22h1v1h-1zM7 23h1v1h-1zM6 24h1v1h-1zM15 25h1v1h-1z"/><path fill="#030303" d="M7 12h1v1h-1zM10 12h1v1h-1zM10 17h1v1h-1zM28 20h1v1h-1zM5 21h1v1h-1zM15 21h1v1h-1zM26 21h1v1h-1zM8 23h1v1h-1zM26 23h1v1h-1zM25 24h1v1h-1z"/><path fill="#040404" d="M21 8h1v1h-1zM18 10h1v1h-1zM6 13h1v1h-1zM12 17h1v1h-1zM19 17h1v1h-1zM21 17h1v1h-1zM6 21h1v1h-1zM25 21h1v1h-1zM6 22h1v1h-1zM5 24h1v1h-1z"/><path fill="#454842" d="M22 9h1v1h-1zM24 9h1v1h-1zM24 10h1v1h-1zM22 11h2v1h-2zM22 12h3v1h-3zM13 17h1v1h-1zM13 18h1v1h-1zM13 19h1v1h-1zM23 25h1v1h-1z"/><path fill="#070707" d="M24 11h1v1h-1zM11 17h1v1h-1zM20 17h1v1h-1zM10 19h1v1h-1zM19 19h3v1h-3zM3 20h1v1h-1zM8 24h1v1h-1zM23 24h1v1h-1z"/><path fill="#fafbfb" d="M8 7h2v1h-2zM22 7h2v1h-2zM7 8h1v1h-1zM22 8h1v1h-1zM24 8h1v1h-1zM8 9h1v1h-1zM21 10h1v1h-1z"/><path fill="#fbf9fa" d="M7 7h1v1h-1zM24 7h1v1h-1zM8 8h2v1h-2zM23 8h1v1h-1zM10 9h1v1h-1zM21 9h1v1h-1zM10 10h1v1h-1z"/><path fill="#eeeded" d="M20 7h1v1h-1zM20 8h1v1h-1zM12 11h8v1h-8zM29 21h1v1h-1z"/><path fill="#060606" d="M6 14h1v1h-1zM11 19h2v1h-2zM26 24h1v1h-1z"/><path fill="#8d1d1d" d="M7 9h1v1h-1zM9 9h1v1h-1zM7 10h3v1h-3z"/><path fill="#000100" d="M6 9h1v1h-1zM6 11h1v1h-1z"/><path fill="#030102" d="M10 8h1v1h-1zM6 10h1v1h-1z"/><path fill="#a2be91" d="M11 8h1v1h-1zM22 10h1v1h-1z"/><path fill="#f7ffe9" d="M23 9h1v1h-1zM23 10h1v1h-1z"/><path fill="#000002" d="M25 11h1v1h-1z"/><path fill="#000700" d="M21 11h1v1h-1z"/><path fill="#130002" d="M7 11h3v1h-3z"/></svg>